<svg xmlns="http://www.w3.org/2000/svg" viewBox="0 0 928.764 240"><path d="M217.69 24.332h-16.378v83.782h16.378V24.332zm30.526 17.603l55.483 66.177h13.033V24.33h-15.594v56.597L253.452 24.33h-20.611v83.782h15.375V41.935zm136.255 66.122c4.085-1.075 7.648-2.71 10.694-4.9a23.416 23.416 0 0 0 7.185-8.3c1.749-3.345 2.62-7.28 2.62-11.812 0-2.675-.318-5.2-.948-7.575a17.662 17.662 0 0 0-3.286-6.519c-1.56-1.967-3.658-3.712-6.296-5.235-2.634-1.523-5.924-2.73-9.86-3.622-1.93-.444-4.175-.874-6.736-1.282-2.565-.408-5.221-.835-7.969-1.28-2.75-.447-5.421-.892-8.022-1.336-2.602-.448-4.864-.93-6.795-1.45-2.53-.667-4.198-1.706-5.014-3.12-.82-1.41-1.224-2.746-1.224-4.01 0-2.154.667-3.9 2.004-5.236 1.337-1.337 2.987-2.358 4.959-3.064 1.967-.704 4.084-1.188 6.35-1.447a54.897 54.897 0 0 1 6.296-.39c1.782 0 3.73.15 5.848.445s4.27.798 6.463 1.505a39.92 39.92 0 0 1 6.519 2.783 32.09 32.09 0 0 1 6.015 4.179l11.36-8.802c-1.632-1.633-3.694-3.269-6.179-4.901-2.492-1.632-5.334-3.082-8.526-4.347-3.195-1.26-6.667-2.284-10.417-3.064-3.752-.78-7.669-1.17-11.753-1.17a61.46 61.46 0 0 0-12.534 1.283c-4.12.853-7.8 2.266-11.032 4.234-3.232 1.967-5.83 4.547-7.797 7.742-1.968 3.196-2.951 7.13-2.951 11.809 0 4.456 1.224 8.34 3.676 11.644 2.452 3.305 6.237 5.888 11.364 7.743a66.06 66.06 0 0 0 9.859 2.339c3.304.52 6.496.947 9.582 1.282 3.083.332 5.943.667 8.577 1.002 2.638.335 4.94.875 6.908 1.614 1.967.744 3.512 1.786 4.627 3.123 1.112 1.337 1.669 3.159 1.669 5.458 0 2.157-.485 4.03-1.45 5.625-.966 1.6-2.281 2.937-3.953 4.012-1.673 1.078-3.662 1.876-5.961 2.397-2.306.517-4.831.776-7.579.776-2.451 0-5.064-.259-7.851-.776a44.344 44.344 0 0 1-8.132-2.339c-2.638-1.042-5.072-2.303-7.298-3.793-2.23-1.483-4.052-3.192-5.462-5.123l-12.475 8.69c1.184 1.782 2.875 3.658 5.064 5.626 2.194 1.97 5 3.789 8.417 5.461 3.414 1.669 7.462 3.046 12.144 4.12 4.678 1.076 10.096 1.618 16.264 1.618 4.602 0 8.952-.542 13.036-1.617zM489.643 93.74h-55.927V72.572h46.126v-14.26h-46.126V44.607l-5.196-5.906h58.602v-14.37h-68.334v83.782h70.855V93.74zm85.785 0h-55.927V72.572h46.126v-14.26h-46.126V44.607l-5.196-5.906h58.602v-14.37h-68.334v83.782h70.855V93.74zm55.595 16.156c4.53 0 8.916-.466 13.15-1.395 4.233-.926 8.15-2.317 11.753-4.175a39.181 39.181 0 0 0 9.637-6.963c2.82-2.787 5.087-6.034 6.795-9.75l-12.923-6.573c-1.337 2.525-2.991 4.697-4.959 6.518a25.981 25.981 0 0 1-6.631 4.456c-2.445 1.152-5.105 2.004-7.961 2.562a46.22 46.22 0 0 1-8.86.838c-4.307 0-8.377-.689-12.2-2.063-3.825-1.373-7.166-3.304-10.026-5.793-2.86-2.488-5.126-5.498-6.799-9.024-1.668-3.527-2.503-7.484-2.503-11.867 0-4.529.835-8.58 2.503-12.144 1.673-3.567 3.939-6.591 6.799-9.08 2.86-2.488 6.201-4.383 10.027-5.683 3.822-1.297 7.892-1.95 12.198-1.95 3.49 0 6.631.354 9.415 1.06 2.787.708 5.308 1.728 7.575 3.065s4.328 2.97 6.186 4.9a45.017 45.017 0 0 1 5.127 6.464l13.367-6.016c-4.01-7.429-9.582-13.295-16.712-17.605-7.13-4.306-15.448-6.46-24.958-6.46-6.237 0-12.198.984-17.878 2.952-5.68 1.967-10.683 4.809-14.986 8.522-4.31 3.716-7.724 8.263-10.253 13.648-2.525 5.385-3.785 11.459-3.785 18.217 0 6.165 1.115 11.882 3.34 17.158 2.227 5.272 5.408 9.859 9.529 13.757 4.12 3.899 9.061 6.948 14.817 9.138 5.754 2.19 12.162 3.286 19.216 3.286zm-395.208 73.83a13.615 13.615 0 0 0 4.394-2.937 14.061 14.061 0 0 0 2.973-4.386c.732-1.677 1.096-3.484 1.096-5.418 0-2.708-.568-5.087-1.708-7.127-1.145-2.044-2.813-3.56-5.01-4.547a13.695 13.695 0 0 0 3.232-4.369c.776-1.66 1.162-3.483 1.162-5.468 0-1.811-.354-3.527-1.064-5.149a14.22 14.22 0 0 0-2.846-4.237 13.081 13.081 0 0 0-4.164-2.846 12.748 12.748 0 0 0-5.105-1.034H201.06v48.582h29.395c1.895 0 3.684-.354 5.36-1.064zm-26.099-39.572h17.751c.82 0 1.596.164 2.332.485.733.328 1.37.758 1.91 1.3.539.54.972 1.18 1.296 1.917.321.736.485 1.516.485 2.339s-.164 1.581-.485 2.274a6.064 6.064 0 0 1-1.297 1.818 5.706 5.706 0 0 1-1.88 1.202c-.71.28-1.479.423-2.295.423l-17.817-.062v-11.696zm0 32.69v-12.986h19.041c.864 0 1.694.175 2.496.514a6.786 6.786 0 0 1 2.102 1.424c.605.605 1.09 1.301 1.458 2.099.368.798.554 1.629.554 2.488 0 .904-.176 1.753-.522 2.55a6.294 6.294 0 0 1-1.424 2.067 6.906 6.906 0 0 1-2.106 1.391 6.354 6.354 0 0 1-2.558.518l-19.04-.066zm88.798-3.07c1.316-2.562 1.971-5.502 1.971-8.818v-28.812h-8.784v27.457c0 2.54-.452 4.682-1.359 6.427-.904 1.742-2.088 3.155-3.552 4.234-1.465 1.075-3.123 1.85-4.974 2.32a22.207 22.207 0 0 1-11.178 0c-1.85-.47-3.509-1.245-4.973-2.32-1.465-1.079-2.649-2.492-3.556-4.234-.904-1.745-1.356-3.887-1.356-6.427v-27.457h-8.85v28.812c0 3.316.656 6.256 1.971 8.818 1.312 2.565 3.08 4.718 5.298 6.46 2.215 1.745 4.802 3.082 7.75 4.007 2.95.926 6.062 1.389 9.338 1.389 3.228 0 6.296-.463 9.207-1.389 2.907-.925 5.48-2.262 7.717-4.007 2.24-1.742 4.015-3.895 5.33-6.46zm50.23-11.756c-.907-1.144-2.12-2.153-3.65-3.038-1.53-.882-3.436-1.585-5.717-2.099a58.749 58.749 0 0 0-3.91-.743c-1.486-.237-3.027-.485-4.62-.743a684.344 684.344 0 0 1-4.648-.773 45.753 45.753 0 0 1-3.942-.841c-1.465-.386-2.434-.991-2.908-1.811-.474-.82-.71-1.592-.71-2.325 0-1.246.386-2.262 1.162-3.038.776-.777 1.734-1.367 2.875-1.775a16.392 16.392 0 0 1 3.683-.838c1.312-.15 2.529-.23 3.65-.23 1.036 0 2.165.088 3.393.26a22.03 22.03 0 0 1 3.745.874 22.73 22.73 0 0 1 3.782 1.614 18.68 18.68 0 0 1 3.487 2.423l6.591-5.105c-.95-.947-2.146-1.894-3.589-2.845-1.443-.944-3.09-1.786-4.94-2.518-1.851-.729-3.866-1.322-6.041-1.774a33.464 33.464 0 0 0-6.817-.682 35.77 35.77 0 0 0-7.269.744c-2.386.495-4.521 1.319-6.394 2.455a13.518 13.518 0 0 0-4.522 4.49c-1.144 1.854-1.712 4.135-1.712 6.849 0 2.583.71 4.838 2.131 6.751 1.421 1.917 3.619 3.414 6.591 4.489 1.895.605 3.8 1.057 5.717 1.355 1.916.303 3.767.554 5.556.743 1.786.197 3.447.39 4.974.587 1.526.19 2.863.503 4.008.933 1.14.433 2.033 1.035 2.681 1.81.645.773.97 1.833.97 3.167 0 1.246-.281 2.335-.842 3.26-.562.926-1.327 1.702-2.296 2.329-.965.623-2.12 1.09-3.454 1.388-1.337.302-2.798.452-4.394.452-1.42 0-2.94-.15-4.554-.452a25.535 25.535 0 0 1-4.715-1.355 22.467 22.467 0 0 1-4.234-2.2c-1.293-.86-2.346-1.852-3.166-2.97l-7.236 5.039c.69 1.034 1.67 2.124 2.94 3.26 1.272 1.145 2.897 2.201 4.88 3.167 1.978.969 4.328 1.77 7.038 2.39 2.715.623 5.86.936 9.433.936 2.671 0 5.192-.313 7.56-.936 2.369-.62 4.435-1.57 6.202-2.842a13.582 13.582 0 0 0 4.168-4.813c1.013-1.935 1.52-4.22 1.52-6.846 0-1.552-.183-3.017-.55-4.394a10.317 10.317 0 0 0-1.907-3.779zm19.963-25.875h-9.498v48.582h9.498v-48.582zm57.433 0h-9.043v32.82l-27.65-32.82h-11.955v48.582h8.916v-38.373l32.175 38.373h7.557v-48.582zm17.51 27.976h26.744v-8.271H443.65V147.9l-3.017-3.425h33.983v-8.332h-39.623v48.582h41.087v-8.333h-32.43V164.12zm43.64-20.42c-1.145 1.855-1.713 4.136-1.713 6.85 0 2.583.71 4.838 2.132 6.751 1.42 1.917 3.618 3.414 6.59 4.489 1.895.605 3.8 1.057 5.717 1.355 1.917.303 3.767.554 5.557.743 1.785.197 3.446.39 4.973.587 1.526.19 2.864.503 4.008.933 1.14.433 2.033 1.035 2.681 1.81.645.773.97 1.833.97 3.167 0 1.246-.285 2.335-.842 3.26-.561.926-1.326 1.702-2.296 2.329-.965.623-2.12 1.09-3.454 1.388-1.337.302-2.802.452-4.394.452-1.42 0-2.94-.15-4.554-.452a25.658 25.658 0 0 1-4.718-1.355 22.55 22.55 0 0 1-4.23-2.2c-1.294-.86-2.347-1.852-3.166-2.97l-7.236 5.039c.688 1.034 1.668 2.124 2.94 3.26 1.271 1.145 2.896 2.201 4.878 3.167 1.979.969 4.329 1.77 7.043 2.39 2.711.623 5.855.936 9.43.936 2.67 0 5.191-.313 7.56-.936 2.368-.62 4.434-1.57 6.201-2.842a13.582 13.582 0 0 0 4.168-4.813c1.01-1.935 1.516-4.22 1.516-6.846 0-1.552-.179-3.017-.547-4.394a10.201 10.201 0 0 0-1.905-3.779c-.904-1.144-2.125-2.153-3.651-3.038-1.53-.882-3.436-1.585-5.717-2.099a58.752 58.752 0 0 0-3.91-.743c-1.486-.237-3.027-.485-4.619-.743a684.344 684.344 0 0 1-4.65-.773 46.046 46.046 0 0 1-3.941-.841c-1.465-.386-2.434-.991-2.908-1.811-.473-.82-.71-1.592-.71-2.325 0-1.246.386-2.262 1.162-3.038.776-.777 1.734-1.367 2.875-1.775a16.392 16.392 0 0 1 3.683-.838c1.312-.15 2.529-.23 3.651-.23 1.035 0 2.164.088 3.392.26 1.224.17 2.474.462 3.746.874 1.271.408 2.528.943 3.778 1.614 1.25.67 2.412 1.476 3.49 2.423l6.588-5.105c-.948-.947-2.143-1.894-3.586-2.845-1.442-.944-3.09-1.786-4.94-2.518a37.163 37.163 0 0 0-6.04-1.774 33.454 33.454 0 0 0-6.814-.682 35.78 35.78 0 0 0-7.273.744c-2.386.495-4.521 1.319-6.394 2.455a13.518 13.518 0 0 0-4.521 4.49zm54.17 38.603c1.983.969 4.325 1.77 7.04 2.39 2.718.623 5.859.936 9.433.936 2.67 0 5.192-.313 7.56-.936 2.368-.62 4.434-1.57 6.205-2.842a13.607 13.607 0 0 0 4.164-4.813c1.013-1.935 1.516-4.22 1.516-6.846 0-1.552-.179-3.017-.547-4.394a10.212 10.212 0 0 0-1.909-3.779c-.9-1.144-2.117-2.153-3.643-3.038-1.53-.882-3.44-1.585-5.72-2.099a58.32 58.32 0 0 0-3.91-.743c-1.487-.237-3.024-.485-4.62-.743a685.006 685.006 0 0 1-4.649-.773 46.366 46.366 0 0 1-3.942-.841c-1.465-.386-2.434-.991-2.908-1.811-.477-.82-.71-1.592-.71-2.325 0-1.246.386-2.262 1.162-3.038.776-.777 1.734-1.367 2.875-1.775a16.485 16.485 0 0 1 3.683-.838c1.312-.15 2.529-.23 3.651-.23 1.031 0 2.164.088 3.392.26 1.224.17 2.474.462 3.746.874 1.271.408 2.528.943 3.778 1.614 1.25.67 2.412 1.476 3.49 2.423l6.592-5.105c-.948-.947-2.143-1.894-3.59-2.845-1.442-.944-3.089-1.786-4.94-2.518-1.85-.729-3.866-1.322-6.04-1.774a33.454 33.454 0 0 0-6.814-.682 35.78 35.78 0 0 0-7.273.744c-2.39.495-4.521 1.319-6.39 2.455a13.496 13.496 0 0 0-4.525 4.49c-1.14 1.854-1.716 4.135-1.716 6.849 0 2.583.714 4.838 2.135 6.751 1.42 1.917 3.618 3.414 6.59 4.489 1.895.605 3.8 1.057 5.717 1.355 1.917.303 3.771.554 5.557.743 1.785.197 3.443.39 4.973.587 1.53.19 2.864.503 4.008.933 1.14.433 2.033 1.035 2.678 1.81.648.773.972 1.833.972 3.167 0 1.246-.28 2.335-.841 3.26-.561.926-1.323 1.702-2.295 2.329-.966.623-2.121 1.09-3.454 1.388-1.338.302-2.799.452-4.394.452-1.421 0-2.94-.15-4.555-.452a25.534 25.534 0 0 1-4.714-1.355 22.35 22.35 0 0 1-4.234-2.2c-1.294-.86-2.35-1.852-3.166-2.97l-7.236 5.039c.688 1.034 1.668 2.124 2.94 3.26 1.272 1.145 2.897 2.201 4.879 3.167zm105.144-5.265c1.013-1.935 1.515-4.22 1.515-6.846 0-1.552-.182-3.017-.546-4.394a10.268 10.268 0 0 0-1.91-3.779c-.9-1.144-2.12-2.153-3.646-3.038-1.527-.882-3.436-1.585-5.717-2.099a58.284 58.284 0 0 0-3.91-.743 1701.27 1701.27 0 0 1-4.62-.743 684.226 684.226 0 0 1-4.648-.773 46.37 46.37 0 0 1-3.943-.841c-1.464-.386-2.433-.991-2.907-1.811-.478-.82-.71-1.592-.71-2.325 0-1.246.386-2.262 1.162-3.038.776-.777 1.734-1.367 2.874-1.775a16.487 16.487 0 0 1 3.684-.838 32.47 32.47 0 0 1 3.65-.23c1.032 0 2.165.088 3.393.26a22.11 22.11 0 0 1 3.745.874c1.272.408 2.529.943 3.779 1.614 1.25.67 2.411 1.476 3.49 2.423l6.59-5.105c-.946-.947-2.142-1.894-3.588-2.845-1.443-.944-3.09-1.786-4.94-2.518-1.851-.729-3.866-1.322-6.041-1.774a33.456 33.456 0 0 0-6.814-.682c-2.455 0-4.878.248-7.272.744-2.39.495-4.522 1.319-6.39 2.455a13.498 13.498 0 0 0-4.526 4.49c-1.14 1.854-1.712 4.135-1.712 6.849 0 2.583.71 4.838 2.131 6.751 1.421 1.917 3.618 3.414 6.591 4.489a38.03 38.03 0 0 0 5.717 1.355c1.916.303 3.77.554 5.556.743 1.786.197 3.443.39 4.974.587 1.53.19 2.863.503 4.007.933 1.14.433 2.033 1.035 2.678 1.81.649.773.973 1.833.973 3.167 0 1.246-.284 2.335-.842 3.26-.56.926-1.322 1.702-2.295 2.329-.966.623-2.12 1.09-3.454 1.388-1.337.302-2.802.452-4.394.452-1.421 0-2.94-.15-4.554-.452a25.54 25.54 0 0 1-4.715-1.355 22.358 22.358 0 0 1-4.234-2.2c-1.293-.86-2.35-1.852-3.166-2.97l-7.236 5.039c.689 1.034 1.669 2.124 2.94 3.26 1.272 1.145 2.897 2.201 4.88 3.167 1.981.969 4.324 1.77 7.042 2.39 2.714.623 5.855.936 9.43.936 2.67 0 5.191-.313 7.56-.936 2.368-.62 4.434-1.57 6.204-2.842a13.606 13.606 0 0 0 4.165-4.813zm55.72 1.455a19.039 19.039 0 0 0 3.94-5.654l-7.495-3.811c-.776 1.46-1.73 2.721-2.875 3.778a14.932 14.932 0 0 1-3.84 2.583 19.535 19.535 0 0 1-4.62 1.487 26.76 26.76 0 0 1-5.137.484c-2.5 0-4.857-.397-7.076-1.195-2.219-.798-4.153-1.913-5.811-3.36a15.775 15.775 0 0 1-3.943-5.231c-.969-2.048-1.453-4.34-1.453-6.883 0-2.627.484-4.973 1.453-7.042a15.707 15.707 0 0 1 3.943-5.262c1.658-1.442 3.592-2.543 5.811-3.297 2.219-.75 4.576-1.13 7.076-1.13 2.022 0 3.844.205 5.458.613s3.082 1.005 4.393 1.778a16.832 16.832 0 0 1 3.586 2.842 25.736 25.736 0 0 1 2.973 3.749l7.753-3.49c-2.328-4.307-5.56-7.71-9.695-10.21-4.132-2.495-8.956-3.745-14.468-3.745-3.618 0-7.076.572-10.37 1.712-3.293 1.14-6.19 2.787-8.69 4.94-2.499 2.158-4.477 4.796-5.942 7.918-1.464 3.119-2.197 6.642-2.197 10.559 0 3.578.645 6.893 1.939 9.954a23.424 23.424 0 0 0 5.523 7.975c2.39 2.26 5.254 4.03 8.591 5.298 3.338 1.271 7.054 1.91 11.146 1.91 2.627 0 5.17-.27 7.625-.81 2.452-.54 4.722-1.348 6.814-2.423a22.807 22.807 0 0 0 5.589-4.037zm48.843-23.355h-28.554v-18.993h-8.66a491.833 491.833 0 0 0-.066 7.622V171.9c0 3.986.021 8.26.065 12.825h8.591v-20.804h28.624v20.804h8.656v-48.582h-8.656v18.993zm62.794-12.633c-2.452-2.215-5.323-3.939-8.591-5.166-3.272-1.228-6.784-1.84-10.533-1.84-3.746 0-7.269.612-10.563 1.84s-6.168 2.95-8.624 5.166c-2.455 2.223-4.39 4.868-5.815 7.95-1.42 3.079-2.131 6.467-2.131 10.173 0 3.709.71 7.097 2.131 10.176 1.425 3.082 3.36 5.727 5.815 7.946 2.456 2.219 5.33 3.942 8.624 5.17 3.294 1.224 6.817 1.84 10.563 1.84 3.749 0 7.261-.616 10.533-1.84 3.268-1.228 6.14-2.951 8.591-5.17 2.456-2.219 4.39-4.864 5.815-7.946 1.421-3.079 2.132-6.467 2.132-10.176 0-3.706-.71-7.094-2.132-10.173-1.424-3.082-3.359-5.727-5.815-7.95zm-2.135 24.878a16.461 16.461 0 0 1-3.906 5.326c-1.657 1.509-3.607 2.682-5.844 3.52-2.244.841-4.656 1.26-7.24 1.26-2.582 0-4.994-.419-7.235-1.26-2.237-.838-4.187-2.011-5.844-3.52a16.888 16.888 0 0 1-3.943-5.326c-.969-2.048-1.453-4.3-1.453-6.755 0-2.456.484-4.704 1.453-6.752a16.89 16.89 0 0 1 3.943-5.326c1.657-1.509 3.607-2.686 5.844-3.524 2.24-.841 4.653-1.26 7.236-1.26s4.995.419 7.24 1.26c2.236.838 4.186 2.015 5.843 3.524a16.462 16.462 0 0 1 3.906 5.326c.951 2.048 1.425 4.296 1.425 6.752 0 2.455-.474 4.707-1.425 6.755zm63.12-24.878c-2.455-2.215-5.322-3.939-8.59-5.166-3.273-1.228-6.785-1.84-10.534-1.84-3.745 0-7.269.612-10.562 1.84-3.294 1.227-6.172 2.95-8.624 5.166-2.456 2.223-4.39 4.868-5.815 7.95-1.421 3.079-2.132 6.467-2.132 10.173 0 3.709.71 7.097 2.132 10.176 1.424 3.082 3.359 5.727 5.815 7.946 2.452 2.219 5.33 3.942 8.624 5.17 3.293 1.224 6.817 1.84 10.562 1.84 3.75 0 7.261-.616 10.533-1.84 3.269-1.228 6.136-2.951 8.592-5.17 2.455-2.219 4.39-4.864 5.815-7.946 1.42-3.079 2.131-6.467 2.131-10.176 0-3.706-.71-7.094-2.131-10.173-1.425-3.082-3.36-5.727-5.815-7.95zm-2.134 24.878a16.461 16.461 0 0 1-3.906 5.326c-1.658 1.509-3.607 2.682-5.844 3.52-2.245.841-4.657 1.26-7.24 1.26s-4.995-.419-7.236-1.26c-2.237-.838-4.19-2.011-5.844-3.52a16.889 16.889 0 0 1-3.942-5.326c-.97-2.048-1.454-4.3-1.454-6.755 0-2.456.485-4.704 1.454-6.752a16.89 16.89 0 0 1 3.942-5.326c1.654-1.509 3.607-2.686 5.844-3.524 2.241-.841 4.653-1.26 7.236-1.26s4.995.419 7.24 1.26c2.237.838 4.186 2.015 5.844 3.524a16.462 16.462 0 0 1 3.906 5.326c.95 2.048 1.424 4.296 1.424 6.752 0 2.455-.473 4.707-1.424 6.755zm26.491 8.752v-39.99h-8.657v48.582h38.118v-8.592h-29.461zm-788.05-35.024l-61.83 35.714V24.53H0v160.313h160.313V24.53h-49.06v116.58zM101.98 0L58.95 24.695v135.29l43.03-24.51V0zm279.79 225.31a7.185 7.185 0 0 0 1.693-2.288c.408-.874.609-1.829.609-2.867 0-.955-.186-1.855-.557-2.703a7.35 7.35 0 0 0-1.49-2.223 6.842 6.842 0 0 0-2.187-1.494 6.641 6.641 0 0 0-2.678-.543h-14.544v25.49h15.422c.995 0 1.935-.186 2.817-.557s1.647-.886 2.302-1.542a7.35 7.35 0 0 0 1.56-2.299c.386-.881.579-1.829.579-2.845 0-1.421-.302-2.67-.9-3.742-.601-1.068-1.475-1.865-2.627-2.386zm-14.611-7.95h9.313c.43 0 .838.084 1.224.255.386.176.718.401 1.002.682.284.284.51.62.681 1.009.171.386.255.794.255 1.224 0 .434-.084.831-.255 1.192a3.147 3.147 0 0 1-.681.954 3.043 3.043 0 0 1-.984.634c-.375.146-.78.219-1.206.219l-9.349-.033v-6.136zm13.186 15.103c-.183.419-.434.78-.747 1.085-.32.307-.685.547-1.104.73-.42.178-.867.269-1.345.269l-9.99-.033V227.7h9.99c.456 0 .89.087 1.308.27.42.182.787.43 1.104.746.317.317.572.685.766 1.1.193.42.287.857.287 1.305 0 .477-.087.922-.27 1.34zm32.883-15.965c-1.29-1.165-2.794-2.073-4.51-2.714-1.717-.641-3.56-.965-5.528-.965-1.964 0-3.81.324-5.541.965-1.727.641-3.236 1.549-4.526 2.714a12.728 12.728 0 0 0-3.05 4.165c-.746 1.621-1.118 3.4-1.118 5.341 0 1.946.372 3.724 1.119 5.341a12.797 12.797 0 0 0 3.05 4.172c1.29 1.159 2.798 2.066 4.525 2.707 1.73.645 3.577.97 5.541.97 1.968 0 3.811-.325 5.527-.97a14.033 14.033 0 0 0 4.511-2.707 12.849 12.849 0 0 0 3.05-4.172c.746-1.617 1.118-3.395 1.118-5.34 0-1.943-.372-3.72-1.118-5.342a12.779 12.779 0 0 0-3.05-4.165zm-1.119 13.048a8.676 8.676 0 0 1-2.054 2.798c-.868.794-1.891 1.406-3.065 1.847-1.176.441-2.44.66-3.8.66-1.355 0-2.62-.219-3.796-.66-1.173-.44-2.197-1.053-3.068-1.847a8.929 8.929 0 0 1-2.066-2.798c-.51-1.071-.761-2.252-.761-3.542s.251-2.466.761-3.541a8.91 8.91 0 0 1 2.066-2.795c.87-.794 1.895-1.41 3.068-1.85 1.177-.442 2.44-.66 3.796-.66 1.36 0 2.624.218 3.8.66 1.174.44 2.197 1.056 3.065 1.85.87.79 1.555 1.72 2.054 2.795.496 1.075.744 2.252.744 3.541 0 1.29-.248 2.47-.744 3.542zm31.134-2.827c.984-1.403 1.475-3.064 1.475-4.984a8.712 8.712 0 0 0-.663-3.407 8.04 8.04 0 0 0-1.847-2.729c-.79-.768-1.738-1.366-2.846-1.796-1.107-.43-2.328-.648-3.661-.648h-14.203v25.497h4.508v-8.512h8.015l6.154 8.512h5.593l-6.54-8.989c1.694-.564 3.031-1.541 4.015-2.944zm-7.462-.747h-9.743v-8.646h9.743c.787 0 1.476.143 2.062.423a4.876 4.876 0 0 1 1.454 1.053c.383.42.667.878.845 1.392.179.506.27.976.27 1.406 0 .448-.066.933-.2 1.44a4.154 4.154 0 0 1-.711 1.424c-.339.44-.805.802-1.406 1.082-.598.284-1.37.426-2.314.426zm35.818-9.035a12.835 12.835 0 0 0-4.066-2.761 12.375 12.375 0 0 0-4.984-1.02h-12.68v25.493h12.68c1.763 0 3.424-.332 4.984-.998 1.56-.67 2.915-1.582 4.066-2.747a13.283 13.283 0 0 0 2.747-4.067c.678-1.548 1.017-3.202 1.017-4.97a11.96 11.96 0 0 0-1.017-4.878 13.304 13.304 0 0 0-2.747-4.052zm-1.49 12.17a8.226 8.226 0 0 1-1.764 2.627 8.476 8.476 0 0 1-2.608 1.778c-.995.44-2.07.663-3.221.663h-8.103v-16.542l8.103-.036c1.151 0 2.226.219 3.22.66a8.474 8.474 0 0 1 2.61 1.8 8.497 8.497 0 0 1 1.763 2.64c.43 1.01.645 2.074.645 3.207 0 1.13-.215 2.197-.645 3.203zm13.83-1.27h14.035v-4.34h-14.035v-4.17l-1.581-1.797h17.83v-4.376h-20.792v25.497h21.562v-4.376h-17.02v-6.438zm31.795-14.682l-11.218 25.494h4.948l2.339-5.356h14.508l2.408 5.356h4.915l-11.254-25.494h-6.646zm-1.895 15.627l5.254-12.03 5.254 12.03h-10.508zm43.037-1.219c0 1.334-.236 2.46-.71 3.377-.474.911-1.097 1.655-1.862 2.22a7.487 7.487 0 0 1-2.612 1.22 11.777 11.777 0 0 1-5.863 0 7.486 7.486 0 0 1-2.612-1.22c-.769-.565-1.392-1.309-1.865-2.22-.474-.918-.71-2.043-.71-3.377v-14.406h-4.646v15.12c0 1.738.346 3.283 1.034 4.627a10.1 10.1 0 0 0 2.78 3.389c1.166.914 2.518 1.614 4.07 2.102 1.545.485 3.177.729 4.897.729 1.694 0 3.305-.244 4.831-.729 1.527-.488 2.875-1.188 4.048-2.102a10.025 10.025 0 0 0 2.798-3.389c.689-1.344 1.035-2.889 1.035-4.627v-15.12h-4.613v14.406zm34.85-14.408h-5.56l-6.949 8.614-6.882-8.614h-5.695l9.695 12.17-10.883 13.324h5.764l7.9-9.83 7.796 9.83h5.728l-10.676-13.39 9.761-12.104zm26.95 10.817a4.328 4.328 0 0 0-1.36-.915 4.023 4.023 0 0 0-1.624-.339c-.587 0-1.14.113-1.662.34a4.274 4.274 0 0 0-1.355.914 4.227 4.227 0 0 0-1.22 2.984 4.1 4.1 0 0 0 .338 1.657c.226.521.532.973.915 1.356.386.39.83.685 1.34.9.507.215 1.057.32 1.644.32a4.08 4.08 0 0 0 1.625-.335 4.393 4.393 0 0 0 1.359-.914c.382-.387.688-.831.914-1.341.226-.51.34-1.057.34-1.644 0-.564-.114-1.107-.34-1.628a4.38 4.38 0 0 0-.914-1.355zm-277.107 0a4.27 4.27 0 0 0-1.356-.915 4.022 4.022 0 0 0-1.625-.339 4.13 4.13 0 0 0-1.661.34 4.27 4.27 0 0 0-1.356.914 4.226 4.226 0 0 0-1.22 2.984c0 .586.113 1.14.339 1.657.226.521.532.973.914 1.356a4.167 4.167 0 0 0 2.984 1.22c.565 0 1.108-.113 1.625-.335a4.334 4.334 0 0 0 1.356-.914c.386-.387.688-.831.918-1.341.226-.51.339-1.057.339-1.644 0-.564-.113-1.107-.34-1.628a4.388 4.388 0 0 0-.917-1.355zm302.055-10.817h-4.544v25.494h20.003v-4.507h-15.46v-20.987zm29.765 9.326l-7.965-9.324h-5.764l11.39 13.394v12.1h4.714v-12.17l11.692-13.287h-5.625l-8.442 9.287zm41.224-5.984c-1.29-1.162-2.794-2.07-4.507-2.71-1.72-.642-3.563-.966-5.53-.966-1.96 0-3.812.324-5.542.965-1.727.641-3.235 1.549-4.522 2.71a12.794 12.794 0 0 0-3.053 4.17c-.747 1.62-1.118 3.398-1.118 5.34 0 1.946.371 3.724 1.118 5.342a12.756 12.756 0 0 0 3.053 4.168c1.287 1.162 2.795 2.07 4.522 2.71 1.73.645 3.581.97 5.542.97 1.967 0 3.81-.325 5.53-.97 1.713-.64 3.218-1.548 4.507-2.71a12.746 12.746 0 0 0 3.05-4.168c.747-1.618 1.118-3.396 1.118-5.342 0-1.942-.371-3.72-1.118-5.34a12.783 12.783 0 0 0-3.05-4.17zm-1.118 13.05a8.672 8.672 0 0 1-2.051 2.8c-.871.793-1.891 1.405-3.068 1.846-1.173.441-2.441.66-3.8.66-1.356 0-2.62-.219-3.793-.66-1.177-.44-2.197-1.053-3.068-1.847a8.883 8.883 0 0 1-2.07-2.798c-.51-1.071-.761-2.252-.761-3.542s.251-2.466.762-3.541a8.865 8.865 0 0 1 2.069-2.794 9.368 9.368 0 0 1 3.068-1.851c1.173-.441 2.437-.66 3.793-.66 1.359 0 2.627.219 3.8.66a9.37 9.37 0 0 1 3.068 1.85c.87.791 1.552 1.72 2.05 2.795.5 1.075.748 2.252.748 3.541 0 1.29-.248 2.47-.747 3.542zm30.167.833l-14.508-17.222h-6.27v25.493h4.677v-20.134l16.88 20.134h3.968v-25.493h-4.747v17.222zm-522.183-13.956c-.795-.769-1.746-1.37-2.853-1.8-1.112-.43-2.332-.648-3.67-.648H201.06v25.551h4.485v-8.529h9.885c1.246 0 2.39-.211 3.431-.63a8.04 8.04 0 0 0 2.7-1.746 8.069 8.069 0 0 0 1.786-2.67c.43-1.028.645-2.157.645-3.381s-.223-2.358-.664-3.41a8.13 8.13 0 0 0-1.85-2.737zm-1.972 7.458a3.901 3.901 0 0 1-.728 1.425c-.35.444-.827.805-1.428 1.086-.598.284-1.374.426-2.329.426h-9.476v-8.66h9.476c.795 0 1.487.141 2.073.422.59.284 1.075.634 1.461 1.053s.675.882.868 1.395c.193.507.288.977.288 1.407 0 .452-.066.936-.205 1.446zm16.255-9.906l-11.244 25.551h4.96l2.345-5.37h14.538l2.416 5.37h4.925l-11.28-25.551h-6.66zm-1.902 15.663l5.269-12.06 5.264 12.06H233.86zm45.274-2.07c.984-1.406 1.475-3.071 1.475-4.999a8.74 8.74 0 0 0-.663-3.41 8.133 8.133 0 0 0-1.85-2.736 8.405 8.405 0 0 0-2.853-1.8c-1.112-.43-2.332-.649-3.67-.649h-14.234v25.552h4.518v-8.53h8.033l6.165 8.53h5.607l-6.554-9.007c1.698-.564 3.038-1.548 4.026-2.95zm-7.484-.747h-9.76v-8.664h9.76c.79 0 1.483.142 2.07.423a4.85 4.85 0 0 1 1.457 1.053c.383.419.667.882.85 1.395.178.507.269.977.269 1.407 0 .451-.07.936-.204 1.446-.135.51-.372.984-.71 1.428-.34.441-.81.802-1.407 1.082-.602.288-1.374.43-2.325.43zm14.122 12.704h4.996v-25.552h-4.996v25.552zm30.544-11.94c-.477-.6-1.115-1.136-1.92-1.599-.801-.466-1.807-.83-3.006-1.104a28.93 28.93 0 0 0-2.058-.39c-.78-.123-1.589-.255-2.427-.39-.838-.134-1.654-.276-2.445-.411a21.861 21.861 0 0 1-2.073-.441c-.772-.2-1.279-.517-1.53-.947-.248-.434-.372-.842-.372-1.225 0-.659.204-1.191.609-1.6a4.115 4.115 0 0 1 1.512-.932 8.71 8.71 0 0 1 1.938-.44c.689-.08 1.33-.12 1.92-.12.543 0 1.137.047 1.782.134.645.091 1.304.244 1.971.46.667.218 1.33.498 1.99.848a9.721 9.721 0 0 1 1.832 1.275l3.465-2.681c-.496-.5-1.126-.999-1.884-1.494a14.252 14.252 0 0 0-2.601-1.33 19.421 19.421 0 0 0-3.173-.933 17.648 17.648 0 0 0-3.586-.357c-1.293 0-2.565.131-3.822.39-1.257.262-2.379.692-3.363 1.294a7.087 7.087 0 0 0-2.379 2.36c-.601.973-.9 2.176-.9 3.6 0 1.363.372 2.543 1.122 3.549.747 1.01 1.902 1.796 3.465 2.364.995.314 1.997.554 3.006.715 1.01.156 1.982.288 2.922.386.94.105 1.811.208 2.616.306.802.106 1.505.266 2.106.495.598.226 1.071.543 1.41.951.339.408.51.962.51 1.665 0 .656-.15 1.228-.44 1.713-.296.488-.7.9-1.206 1.224a5.61 5.61 0 0 1-1.819.732c-.703.16-1.472.237-2.31.237-.746 0-1.548-.076-2.397-.237a13.403 13.403 0 0 1-2.481-.714 11.867 11.867 0 0 1-2.223-1.155 6.536 6.536 0 0 1-1.665-1.563l-3.803 2.653c.36.539.874 1.11 1.544 1.712.667.601 1.523 1.155 2.565 1.665s2.274.93 3.702 1.257c1.428.328 3.079.492 4.959.492 1.406 0 2.729-.164 3.978-.492 1.246-.328 2.332-.823 3.261-1.494a7.18 7.18 0 0 0 2.19-2.528c.532-1.024.798-2.223.798-3.607 0-.813-.095-1.581-.288-2.307a5.386 5.386 0 0 0-1.002-1.985z" fill="#233568"/></svg>